<svg width="160" height="160" viewBox="0 0 160 160" fill="none" xmlns="http://www.w3.org/2000/svg">
<rect width="160" height="160" fill="#00ADEF"/>
<path d="M80.3438 71.7843C89.3822 71.7843 96.7359 64.4319 96.7359 55.3921C96.7359 46.3524 89.3822 39 80.3438 39C71.3054 39 63.9517 46.3524 63.9517 55.3921C63.9517 64.4319 71.3054 71.7843 80.3438 71.7843ZM80.3438 46.8535C85.0516 46.8535 88.8824 50.6831 88.8824 55.3921C88.8824 60.1012 85.0516 63.9308 80.3438 63.9308C75.636 63.9308 71.8052 60.1012 71.8052 55.3921C71.8052 50.6831 75.636 46.8535 80.3438 46.8535Z" fill="white"/>
<path d="M86.4268 77.5391H74.2606C58.6776 77.5391 46 90.2166 46 105.801V107.105C46 114.301 51.8556 120.156 59.0521 120.156H101.635C108.832 120.156 114.687 114.301 114.687 107.105V105.801C114.687 90.2166 102.01 77.5391 86.4268 77.5391ZM106.834 107.105C106.834 109.971 104.502 112.302 101.635 112.302H59.0521C56.185 112.302 53.8535 109.971 53.8535 107.105V105.801C53.8535 94.5473 63.0083 85.3926 74.2606 85.3926H86.4269C97.6792 85.3926 106.834 94.5473 106.834 105.801L106.834 107.105Z" fill="white"/>
<path d="M60.7646 87L49.7646 102.5V109L57.7646 116H106.765L109.265 109L106.765 96.5L95.7646 82H76.7646L60.7646 87Z" fill="white"/>
<path d="M82.7646 43.5L72.2646 46.5L69.2646 55.5L72.2646 62.5L82.7646 66H89.2646V55.5V46.5L82.7646 43.5Z" fill="white"/>
</svg>
