<svg fill="none" height="160" viewBox="0 0 160 160" width="160" xmlns="http://www.w3.org/2000/svg" xmlns:xlink="http://www.w3.org/1999/xlink"><clipPath id="a"><path d="m36 54h89v53h-89z"/></clipPath><path d="m0 0h160v160h-160z" fill="#00adef"/><g clip-path="url(#a)" fill="#fff"><path d="m39.6176 100.573c25.4705 9.384 56.1719 7.709 81.6914 0 6.526-1.9699 3.74-12.2645-2.811-10.2696-23.8818 7.1914-52.2366 8.7923-76.0694 0-6.4287-2.3643-9.1664 7.9303-2.811 10.2696z"/><path d="m111.702 77.9645c-.537-4.2853-3.128-23.7663-31.5077-23.9633-28.3793-.197-30.9703 23.7663-30.9703 23.7663l-.9289 8.2751c2.2977 2.512 14.5685 8.0534 39.9657 10.5409-9.9731 3.177-36.5924-2.4875-40.1857-3.6697l-.3422 4.704c30.0415 12.0682 65.0691-.9358 65.0691-.9358s-.562-14.4814-1.1-18.7668z"/></g></svg>